<?xml version="1.0" standalone="no"?>
<!DOCTYPE svg PUBLIC "-//W3C//DTD SVG 20010904//EN"
 "http://www.w3.org/TR/2001/REC-SVG-20010904/DTD/svg10.dtd">
<svg version="1.0" xmlns="http://www.w3.org/2000/svg"
 width="700.000000pt" height="700.000000pt" viewBox="0 0 700.000000 700.000000"
 preserveAspectRatio="xMidYMid meet">
<metadata>
Created by potrace 1.11, written by Peter Selinger 2001-2013
</metadata>
<g transform="translate(0.000000,700.000000) scale(0.100000,-0.100000)"
fill="#000000" stroke="none">
<path d="M1578 5606 c-1 -2 -46 -7 -98 -10 -144 -10 -243 -23 -475 -62 -347
-58 -721 -202 -865 -332 -104 -94 -95 77 -94 -1692 0 -1418 2 -1550 17 -1610
46 -175 157 -308 327 -393 172 -85 396 -125 647 -113 174 7 211 12 353 43 176
39 307 91 453 180 l57 36 0 142 0 141 -91 230 c-49 126 -93 232 -97 236 -4 3
-37 9 -74 12 -102 9 -168 37 -168 71 0 38 15 42 102 29 46 -7 108 -13 138 -14
30 0 60 -4 67 -8 6 -4 44 -95 83 -202 40 -107 88 -226 107 -265 145 -290 370
-494 639 -579 138 -43 191 -51 369 -50 187 1 278 16 420 73 l73 30 54 -21
c169 -65 336 -90 563 -84 320 8 586 83 818 232 l57 37 0 166 c1 525 -1 895 -5
900 -3 2 -72 5 -153 6 -81 1 -157 3 -169 4 -31 2 -63 35 -63 66 l0 24 461 -1
460 -1 -3 -25 c-2 -14 -15 -34 -30 -45 -24 -18 -45 -21 -195 -23 -92 -1 -171
-3 -176 -3 -14 -2 -5 -720 10 -791 18 -86 82 -214 135 -271 134 -142 340 -237
578 -266 79 -10 361 -11 450 -1 157 16 339 67 476 132 101 49 209 117 216 138
7 24 1 3152 -6 3222 -46 415 -428 690 -951 686 -324 -3 -617 -108 -839 -300
l-75 -65 -1 -436 0 -435 78 -2 c105 -3 127 -9 141 -38 24 -54 25 -54 -164 -54
l-175 0 0 308 c0 279 -2 334 -15 397 -37 180 -145 343 -295 445 -176 119 -348
170 -600 176 -155 4 -246 -5 -385 -39 -147 -36 -334 -123 -439 -205 l-50 -38
-110 57 c-249 128 -540 206 -916 245 -66 6 -565 15 -572 10z m357 -1432 c30
-12 46 -62 51 -167 4 -56 1 -135 -4 -176 -13 -93 -36 -121 -99 -121 l-43 0 0
235 0 235 39 0 c22 0 47 -3 56 -6z m1155 -1274 c0 -46 -7 -48 -44 -19 -32 25
-32 33 -3 47 39 19 47 14 47 -28z"/>
</g>
</svg>
