{
	"asset":{
		"version":"2.0",
		"generator":"Created using the official Cinema 4D glTF Exporter. Previous Build: 1.000x279138."
	},
	"scenes":[{
		"nodes":[0]
	}],
	"nodes":[{
		"name":"Bear",
		"translation":[0,
		0,
		0],
		"rotation":[0.707,
		0,
		0,
		-0.707],
		"scale":[1,
		1,
		-1],
		"mesh":0
	}],
	"meshes":[{
		"primitives":[{
			"attributes":{
				"POSITION":1,
				"NORMAL":2
			},
			"indices":0,
			"material":0
		}]
	}],
	"accessors":[{
		"bufferView":0,
		"type":"SCALAR",
		"componentType":5125,
		"count":118410,
		"byteOffset":0,
		"min":[0],
		"max":[85860]
	},
	{
		"bufferView":1,
		"type":"VEC3",
		"componentType":5126,
		"count":85861,
		"byteOffset":0,
		"min":[-16.603,
		-18.918,
		-41.118],
		"max":[23.235,
		8.271,
		0.115]
	},
	{
		"bufferView":1,
		"type":"VEC3",
		"componentType":5126,
		"count":85861,
		"byteOffset":12,
		"min":[-1,
		-1,
		-1],
		"max":[1,
		1,
		1]
	}],
	"bufferViews":[{
		"buffer":0,
		"byteOffset":0,
		"byteLength":473640,
		"target":34963
	},
	{
		"buffer":0,
		"byteOffset":473640,
		"byteLength":2060664,
		"target":34962,
		"byteStride":24
	}],
	"buffers":[{
		"uri":"data:application/octet-stream;base64,",
		"byteLength":2534304
	}],
	"materials":[{
		"pbrMetallicRoughness":{
			"baseColorFactor":[1,
			1,
			1,
			1],
			"metallicFactor":0,
			"roughnessFactor":0.5
		},
		"emissiveFactor":[0,
		0,
		0],
		"alphaMode":"OPAQUE",
		"doubleSided":false
	}]
}