<svg id="Layer_1" data-name="Layer 1" xmlns="http://www.w3.org/2000/svg" viewBox="0 0 113.19 132.26">
  <title>3</title>
  <g id="_3" data-name="3">
    <path d="M98.64,62.32a17.88,17.88,0,0,0-7.52-2c-2.14,0-3.22.87-3.22,2.63a2.05,2.05,0,0,0,.59,1.66,20.63,20.63,0,0,1,14.06,5.67q7.9,7,7.91,20,0,19.73-16.7,31.05-15.33,10.35-39,10.35T15.78,121Q.49,110.36.5,92.69q0-10.84,7-18t19.78-7.18h1.66a6.58,6.58,0,0,0,1.56.1" transform="translate(0 0.11)" fill="none" stroke="#444"/>
    <path d="M31,59.39q-14.65,0-22.56-6.94A19.33,19.33,0,0,1,1.67,37.12q0-15.91,14.5-26.27T54,.5Q77.25.5,92.39,12.12t15,30.08a25.89,25.89,0,0,1-8.79,20.12" transform="translate(0 0.11)" fill="none" stroke="#444"/>
    <path d="M30.48,67.59q1.75,11.13,9.18,17.48a25.41,25.41,0,0,0,17,6.35q7.62,0,7.62-2.93a4,4,0,0,0-.49-2.15,33.09,33.09,0,0,1-6.35.49A22.15,22.15,0,0,1,41.81,81q-6.35-5.86-6.35-15.63t6.1-15.57Q47.67,44,57.53,44h1.76a16.15,16.15,0,0,1,2.15.19,2.85,2.85,0,0,0,.29-1.27q0-3.12-5.18-3.12a27.1,27.1,0,0,0-15.77,5q-7.17,5-9.81,14.65" transform="translate(0 0.11)" fill="none" stroke="#444"/>
  </g>
  <rect x="0.19" width="113" height="132" fill="none"/>
</svg>
